<svg id="visual" viewBox="0 0 900 600" width="900" height="600" xmlns="http://www.w3.org/2000/svg" xmlns:xlink="http://www.w3.org/1999/xlink" version="1.1"><rect x="0" y="0" width="900" height="600" fill="#1c1b1c"></rect><path d="M0 408L21.5 408C43 408 86 408 128.8 404.3C171.7 400.7 214.3 393.3 257.2 391.8C300 390.3 343 394.7 385.8 395.2C428.7 395.7 471.3 392.3 514.2 401.2C557 410 600 431 642.8 437.5C685.7 444 728.3 436 771.2 428.7C814 421.3 857 414.7 878.5 411.3L900 408L900 601L878.5 601C857 601 814 601 771.2 601C728.3 601 685.7 601 642.8 601C600 601 557 601 514.2 601C471.3 601 428.7 601 385.8 601C343 601 300 601 257.2 601C214.3 601 171.7 601 128.8 601C86 601 43 601 21.5 601L0 601Z" fill="#282828"></path><path d="M0 457L21.5 461.8C43 466.7 86 476.3 128.8 477.3C171.7 478.3 214.3 470.7 257.2 475.3C300 480 343 497 385.8 503.8C428.7 510.7 471.3 507.3 514.2 494.8C557 482.3 600 460.7 642.8 457.3C685.7 454 728.3 469 771.2 478C814 487 857 490 878.5 491.5L900 493L900 601L878.5 601C857 601 814 601 771.2 601C728.3 601 685.7 601 642.8 601C600 601 557 601 514.2 601C471.3 601 428.7 601 385.8 601C343 601 300 601 257.2 601C214.3 601 171.7 601 128.8 601C86 601 43 601 21.5 601L0 601Z" fill="#1e1e1f"></path><path d="M0 561L21.5 550.2C43 539.3 86 517.7 128.8 510.7C171.7 503.7 214.3 511.3 257.2 521.5C300 531.7 343 544.3 385.8 540.8C428.7 537.3 471.3 517.7 514.2 508.2C557 498.7 600 499.3 642.8 504.5C685.7 509.7 728.3 519.3 771.2 521.7C814 524 857 519 878.5 516.5L900 514L900 601L878.5 601C857 601 814 601 771.2 601C728.3 601 685.7 601 642.8 601C600 601 557 601 514.2 601C471.3 601 428.7 601 385.8 601C343 601 300 601 257.2 601C214.3 601 171.7 601 128.8 601C86 601 43 601 21.5 601L0 601Z" fill="#141416"></path></svg>